<mxfile host="app.diagrams.net" agent="Mozilla/5.0 (Windows NT 10.0; Win64; x64) AppleWebKit/537.36 (KHTML, like Gecko) Chrome/131.0.0.0 Safari/537.36 Edg/131.0.0.0" version="24.9.3">
  <diagram name="第 1 页" id="AbF33WjxMXwmDeLzBRk1">
    <mxGraphModel dx="1085" dy="596" grid="0" gridSize="10" guides="1" tooltips="1" connect="1" arrows="1" fold="1" page="1" pageScale="1" pageWidth="827" pageHeight="1169" math="0" shadow="0">
      <root>
        <mxCell id="0" />
        <mxCell id="1" parent="0" />
        <mxCell id="2a0T0VfzPbAxwZrTv3nv-24" style="edgeStyle=orthogonalEdgeStyle;rounded=0;orthogonalLoop=1;jettySize=auto;html=1;" edge="1" parent="1">
          <mxGeometry relative="1" as="geometry">
            <mxPoint x="220" y="381" as="targetPoint" />
            <mxPoint x="220" y="331" as="sourcePoint" />
          </mxGeometry>
        </mxCell>
        <mxCell id="2a0T0VfzPbAxwZrTv3nv-26" value="是" style="edgeLabel;html=1;align=center;verticalAlign=middle;resizable=0;points=[];" vertex="1" connectable="0" parent="2a0T0VfzPbAxwZrTv3nv-24">
          <mxGeometry x="-0.1013" y="2" relative="1" as="geometry">
            <mxPoint x="-2" as="offset" />
          </mxGeometry>
        </mxCell>
        <mxCell id="2a0T0VfzPbAxwZrTv3nv-38" style="edgeStyle=orthogonalEdgeStyle;rounded=0;orthogonalLoop=1;jettySize=auto;html=1;exitX=1;exitY=0.5;exitDx=0;exitDy=0;entryX=1;entryY=0.5;entryDx=0;entryDy=0;" edge="1" parent="1" source="2a0T0VfzPbAxwZrTv3nv-5" target="2a0T0VfzPbAxwZrTv3nv-21">
          <mxGeometry relative="1" as="geometry">
            <Array as="points">
              <mxPoint x="347" y="310" />
              <mxPoint x="347" y="528" />
            </Array>
          </mxGeometry>
        </mxCell>
        <mxCell id="2a0T0VfzPbAxwZrTv3nv-39" value="否" style="edgeLabel;html=1;align=center;verticalAlign=middle;resizable=0;points=[];" vertex="1" connectable="0" parent="2a0T0VfzPbAxwZrTv3nv-38">
          <mxGeometry x="-0.0771" relative="1" as="geometry">
            <mxPoint as="offset" />
          </mxGeometry>
        </mxCell>
        <mxCell id="2a0T0VfzPbAxwZrTv3nv-5" value="判断是否有发布权限" style="rhombus;whiteSpace=wrap;html=1;shadow=0;fontFamily=Helvetica;fontSize=12;align=center;strokeWidth=1;spacing=6;spacingTop=-4;" vertex="1" parent="1">
          <mxGeometry x="135.5" y="278" width="169" height="64" as="geometry" />
        </mxCell>
        <mxCell id="2a0T0VfzPbAxwZrTv3nv-6" style="edgeStyle=none;curved=1;rounded=0;orthogonalLoop=1;jettySize=auto;html=1;exitX=0.5;exitY=1;exitDx=0;exitDy=0;entryX=0.5;entryY=0;entryDx=0;entryDy=0;fontSize=12;startSize=8;endSize=8;" edge="1" parent="1" source="2a0T0VfzPbAxwZrTv3nv-7" target="2a0T0VfzPbAxwZrTv3nv-10">
          <mxGeometry relative="1" as="geometry" />
        </mxCell>
        <mxCell id="2a0T0VfzPbAxwZrTv3nv-7" value="开始" style="rounded=1;whiteSpace=wrap;html=1;fontSize=12;glass=0;strokeWidth=1;shadow=0;" vertex="1" parent="1">
          <mxGeometry x="160" y="131" width="120" height="40" as="geometry" />
        </mxCell>
        <mxCell id="2a0T0VfzPbAxwZrTv3nv-9" style="edgeStyle=none;curved=1;rounded=0;orthogonalLoop=1;jettySize=auto;html=1;exitX=0.5;exitY=1;exitDx=0;exitDy=0;entryX=0.5;entryY=0;entryDx=0;entryDy=0;fontSize=12;startSize=8;endSize=8;" edge="1" parent="1" source="2a0T0VfzPbAxwZrTv3nv-10" target="2a0T0VfzPbAxwZrTv3nv-5">
          <mxGeometry relative="1" as="geometry" />
        </mxCell>
        <mxCell id="2a0T0VfzPbAxwZrTv3nv-10" value="接收发布者的&amp;lt;ip，guid，topic&amp;gt;信息" style="whiteSpace=wrap;html=1;" vertex="1" parent="1">
          <mxGeometry x="114" y="195" width="212" height="45" as="geometry" />
        </mxCell>
        <mxCell id="2a0T0VfzPbAxwZrTv3nv-21" value="结束" style="rounded=1;whiteSpace=wrap;html=1;fontSize=12;glass=0;strokeWidth=1;shadow=0;" vertex="1" parent="1">
          <mxGeometry x="160" y="508" width="120" height="40" as="geometry" />
        </mxCell>
        <mxCell id="2a0T0VfzPbAxwZrTv3nv-30" style="edgeStyle=orthogonalEdgeStyle;rounded=0;orthogonalLoop=1;jettySize=auto;html=1;exitX=0.5;exitY=1;exitDx=0;exitDy=0;entryX=0.5;entryY=0;entryDx=0;entryDy=0;" edge="1" parent="1" source="2a0T0VfzPbAxwZrTv3nv-23" target="2a0T0VfzPbAxwZrTv3nv-27">
          <mxGeometry relative="1" as="geometry" />
        </mxCell>
        <mxCell id="2a0T0VfzPbAxwZrTv3nv-23" value="根据配置内容检索有权限的订阅端" style="whiteSpace=wrap;html=1;" vertex="1" parent="1">
          <mxGeometry x="114" y="383" width="212" height="38" as="geometry" />
        </mxCell>
        <mxCell id="2a0T0VfzPbAxwZrTv3nv-31" style="edgeStyle=orthogonalEdgeStyle;rounded=0;orthogonalLoop=1;jettySize=auto;html=1;exitX=0.5;exitY=1;exitDx=0;exitDy=0;entryX=0.5;entryY=0;entryDx=0;entryDy=0;" edge="1" parent="1" source="2a0T0VfzPbAxwZrTv3nv-27" target="2a0T0VfzPbAxwZrTv3nv-21">
          <mxGeometry relative="1" as="geometry" />
        </mxCell>
        <mxCell id="2a0T0VfzPbAxwZrTv3nv-27" value="将guid下发给有权限的订阅端" style="whiteSpace=wrap;html=1;" vertex="1" parent="1">
          <mxGeometry x="114" y="449" width="212" height="38" as="geometry" />
        </mxCell>
      </root>
    </mxGraphModel>
  </diagram>
</mxfile>
